<?xml version="1.0" encoding="utf-8"?>
<!-- Generator: Adobe Illustrator 25.2.0, SVG Export Plug-In . SVG Version: 6.00 Build 0)  -->
<svg version="1.1" id="Layer_1" xmlns="http://www.w3.org/2000/svg" xmlns:xlink="http://www.w3.org/1999/xlink" x="0px" y="0px"
	 viewBox="0 0 738 852" style="enable-background:new 0 0 738 852;" xml:space="preserve">
<style type="text/css">
	.st0{fill:#141227;stroke:#404040;stroke-width:28;stroke-miterlimit:10;}
	.st1{fill:none;stroke:#A2A4A7;stroke-width:10;stroke-linecap:round;stroke-miterlimit:10;}
	.st2{fill:#36A85D;}
	.st3{fill:#DB1F26;}
	.st4{fill:#FFF34D;}
	.st5{fill:#939393;}
	.st6{fill:#26A9E0;}
</style>
<rect x="16.2" y="93.1" class="st0" width="706.1" height="545.7"/>
<g>
	<line class="st1" x1="447.2" y1="131.2" x2="447.2" y2="349.2"/>
	<line class="st1" x1="675.3" y1="435.6" x2="446.1" y2="341.7"/>
	<line class="st1" x1="446.1" y1="341.7" x2="385.9" y2="505.8"/>
	<polygon class="st2" points="539.1,272.9 539.1,207.5 483.6,175.3 427.3,207.5 427.3,272.9 483.6,305 	"/>
	<polygon class="st3" points="631.5,409.4 631.5,367.9 596.8,347.6 560.6,367.9 560.6,409.4 596.8,429.8 	"/>
	<polyline class="st4" points="392.4,384.3 431.6,362.4 470.8,384.3 470.8,429.5 431.6,452 392.4,429.5 392.4,384.3 	"/>
</g>
<path class="st5" d="M169.2,205.9c14.2-14.2,28.3-28.5,42.6-42.6c8.5-8.5,19.3-8.5,27.8,0c17.8,17.6,35.4,35.4,53,53
	c1.4,1.4,2.7,3,3.7,4.7c4.2,8,3,16.2-3.5,22.7c-14.4,14.4-28.9,28.8-43.3,43.3c-0.6,0.6-1.1,1.1-1.7,1.7c0.1,0.3,0.3,0.4,0.4,0.4
	c1.3,1.3,2.5,2.4,3.7,3.7c1,1.3,2,1.3,3.2,0.7c17.6-7.6,35.9-10.3,55-8.2c13.5,1.4,26.4,5.4,38.3,11.7c2,1.1,3.5,2.5,4.2,4.8
	c1.3,3.9-0.3,6.9-3,9.6c-19.4,19.4-38.9,38.9-58.5,58.2c-0.6,0.6-1.3,1-2.3,1.7c2.8,2.7,5.2,4.9,7.5,7.5c1.8,2.1,3.7,3.5,6.5,2.1
	c0.6-0.3,1.4-0.1,2,0c7.5,0.6,14,5.5,16.1,12.1c2.5,7.8,0.4,14.8-5.8,20c-5.9,4.9-14.1,5.5-21,1.3c-5.6-3.4-10-11.3-8-18.6
	c0.1-0.6,0.1-1.4-0.3-1.8c-3.1-3.2-6.2-6.3-9.7-9.9c-0.6,0.8-1,1.4-1.6,2c-19.3,19.3-38.5,38.6-57.8,57.9c-0.7,0.7-1.3,1.3-2,1.8
	c-4.7,3.7-10.3,2.7-13-2.5c-1.6-3-3.1-6.1-4.4-9.2c-7.3-17.9-9.7-36.5-7-55.8c1.3-9.7,3.8-19.2,7.9-28.3c0.3-0.7,0.4-2,0-2.5
	c-1.3-1.8-3-3.4-4.8-5.4c-1,1.1-1.4,1.8-2,2.4c-14.2,14.4-28.6,28.6-42.8,43c-7.9,7.9-18.9,8.2-26.8,0.4
	c-18.3-18.2-36.5-36.4-54.5-54.7c-4.5-4.5-6.2-10-4.9-16.2c0.8-4.2,3.1-7.5,5.9-10.4c14.2-14.2,28.5-28.3,42.7-42.6
	c0.6-0.6,1.6-1,2.5-1.6c-9.4-9.4-18.2-18-26.9-26.8c-8.5-8.5-8.6-19.7-0.3-28.3c8.6-8.7,17.2-17.5,26.1-26.1
	c8.3-8.2,19.6-8,27.9,0.1c4.9,4.8,9.7,9.6,14.5,14.4c3.9,3.9,8,8,12.5,12.5C168.2,207.3,168.5,206.5,169.2,205.9z M228.4,268.8
	c12.8-13,25.8-25.9,38.5-38.8c-13.7-13.7-27.5-27.5-41.3-41.3c-12.7,12.7-25.7,25.8-38.5,38.9C200.7,241,214.5,255,228.4,268.8z
	 M93.7,320.2c13.8,14,27.8,27.9,41.4,41.7c13.1-13,26.2-25.9,39.2-38.8c-13.8-13.8-27.8-27.8-41.7-41.7
	C119.5,294.3,106.5,307.4,93.7,320.2z"/>
<path class="st6" d="M467.8,598.2c-33.1-0.2-62.3-6.3-89.4-20.1c-3.6-1.8-7.1-3.9-10.5-6.2c-2.3-1.6-4.1-1.7-6.7-0.1
	c-18.3,11.6-38.2,19.1-59.5,22.9c-43.6,7.7-85.7,3.2-125.7-16.9c-3.6-1.8-7.1-3.9-10.5-6.2c-2.1-1.4-3.6-1.3-5.5,0.1
	c-16,10.2-33.3,17.8-51.8,22c-11.9,2.6-23.9,4.1-35.9,5.6c-6.6,0.8-10.4-3-10.4-9.6c0-4.7-0.1-9.6,0-14.3c0.1-6.2,2.9-9.1,9.2-9.7
	c25.2-2.1,49-8.3,70.4-22.1c3.3-2.1,6.3-4.6,9.6-6.9c8.2-6,15-6.2,23-0.1c21.4,16.1,45.7,24.2,72.2,26.8
	c29.8,2.9,58.7-0.5,85.7-13.8c7.4-3.7,14.2-8.4,20.9-13c8.4-5.6,15-6.1,23,0.1c14.8,11.5,31.6,18.9,49.8,23.1
	c24.3,5.6,48.7,6.1,73.2,1.4c20.4-3.9,38.9-11.9,55.5-24.4c8.3-6.2,15.1-6.2,23.4,0.1c21.9,16.8,46.9,25.5,74.2,28.2
	c1.8,0.2,3.6,0.5,5.4,0.7c6.6,0.6,9.3,3.3,9.3,9.9c0,4.7,0.1,9.6,0,14.3c-0.1,6.3-3.8,9.9-10.2,9.4c-20.8-1.5-41.3-5.4-60.5-13.7
	c-9.2-4-18-9-26.8-13.8c-2.2-1.3-3.7-1.5-6,0C533.3,590.6,500,597.7,467.8,598.2z"/>
</svg>
